<svg width="60" height="60" fill="none" xmlns="http://www.w3.org/2000/svg"><path d="M52 0H8a8 8 0 0 0-8 8v44a8 8 0 0 0 8 8h44a8 8 0 0 0 8-8V8a8 8 0 0 0-8-8Z" fill="#fff"/><path d="M40.957 14.875h-22a5.5 5.5 0 0 0-5.5 5.5v19.25a5.5 5.5 0 0 0 5.5 5.5h22a5.5 5.5 0 0 0 5.5-5.5v-19.25a5.5 5.5 0 0 0-5.5-5.5Z" fill="url(#a)"/><path d="M40.957 14.875h-22a5.5 5.5 0 0 0-5.5 5.5v19.25a5.5 5.5 0 0 0 5.5 5.5h22a5.5 5.5 0 0 0 5.5-5.5v-19.25a5.5 5.5 0 0 0-5.5-5.5Z" fill="url(#b)"/><path d="M40.957 14.875h-22a5.5 5.5 0 0 0-5.5 5.5v19.25a5.5 5.5 0 0 0 5.5 5.5h22a5.5 5.5 0 0 0 5.5-5.5v-19.25a5.5 5.5 0 0 0-5.5-5.5Z" fill="url(#c)"/><path d="M40.957 14.875h-22a5.5 5.5 0 0 0-5.5 5.5v19.25a5.5 5.5 0 0 0 5.5 5.5h22a5.5 5.5 0 0 0 5.5-5.5v-19.25a5.5 5.5 0 0 0-5.5-5.5Z" fill="url(#d)"/><path d="M40.957 14.875h-22a5.5 5.5 0 0 0-5.5 5.5v19.25a5.5 5.5 0 0 0 5.5 5.5h22a5.5 5.5 0 0 0 5.5-5.5v-19.25a5.5 5.5 0 0 0-5.5-5.5Z" fill="url(#e)"/><path d="M40.957 14.875h-22a5.5 5.5 0 0 0-5.5 5.5v19.25a5.5 5.5 0 0 0 5.5 5.5h22a5.5 5.5 0 0 0 5.5-5.5v-19.25a5.5 5.5 0 0 0-5.5-5.5Z" fill="url(#f)"/><path d="M40.957 14.875h-22a5.5 5.5 0 0 0-5.5 5.5v19.25a5.5 5.5 0 0 0 5.5 5.5h22a5.5 5.5 0 0 0 5.5-5.5v-19.25a5.5 5.5 0 0 0-5.5-5.5Z" fill="url(#g)"/><path d="M40.957 14.875h-22a5.5 5.5 0 0 0-5.5 5.5v19.25a5.5 5.5 0 0 0 5.5 5.5h22a5.5 5.5 0 0 0 5.5-5.5v-19.25a5.5 5.5 0 0 0-5.5-5.5Z" fill="url(#h)"/><path d="M40.957 14.875h-22a5.5 5.5 0 0 0-5.5 5.5v19.25a5.5 5.5 0 0 0 5.5 5.5h22a5.5 5.5 0 0 0 5.5-5.5v-19.25a5.5 5.5 0 0 0-5.5-5.5Z" fill="url(#i)"/><path d="M40.957 14.875h-22a5.5 5.5 0 0 0-5.5 5.5v19.25a5.5 5.5 0 0 0 5.5 5.5h22a5.5 5.5 0 0 0 5.5-5.5v-19.25a5.5 5.5 0 0 0-5.5-5.5Z" fill="url(#j)"/><g filter="url(#k)"><path d="M41.945 22.188h3.051v16.565a1.525 1.525 0 1 1-3.05 0V22.188Z" fill="url(#l)" fill-opacity=".75"/></g><g filter="url(#m)"><path d="m44.05 37.528-9.276-19.194c-.575-1.19.353-2.558 1.672-2.462l3.214.232a6.188 6.188 0 0 1 5.716 6.727L44.05 37.528Z" fill="#D89475"/></g><path d="M41.043 38.035c0-6.153-5.93-8.078-11-8.078-5.672 0-11.086 2.148-11.086 8.078 0 5.431 5.93 10.098 11.086 10.098 6.187 0 11-6.403 11-10.098Z" fill="url(#n)"/><path d="M41.043 38.035c0-6.153-5.93-8.078-11-8.078-5.672 0-11.086 2.148-11.086 8.078 0 5.431 5.93 10.098 11.086 10.098 6.187 0 11-6.403 11-10.098Z" fill="url(#o)"/><path d="M41.043 38.035c0-6.153-5.93-8.078-11-8.078-5.672 0-11.086 2.148-11.086 8.078 0 5.431 5.93 10.098 11.086 10.098 6.187 0 11-6.403 11-10.098Z" fill="url(#p)"/><g filter="url(#q)"><path d="m25.821 41.902 4.136-3.093 4.136 3.093v3.223a4.134 4.134 0 0 1-4.136 4.125 4.134 4.134 0 0 1-4.136-4.125v-3.223Z" fill="url(#r)"/></g><g filter="url(#s)"><path d="M29.442 38.809v10.205c3.529-.172 4.425-3.116 4.425-4.254v-3.115c-2.6-.516-4.033-2.106-4.425-2.837Z" fill="url(#t)"/></g><g filter="url(#u)"><path d="m30.857 39.481-.9-.672-.92.687c-.541 1.351-1.671 1.605-2.662 1.808v1.223c1.319-.128 2.778-.623 3.575-2.185.8 1.568 2.267 2.062 3.59 2.186v-1.221c-.998-.2-2.141-.459-2.683-1.826Z" fill="#BD1836"/></g><path d="M25.188 40.979a.687.687 0 1 0 0 1.375v-1.375Zm5.457-4.77a.688.688 0 0 0-1.375 0h1.375Zm-5.457 6.145c2.349 0 5.457-2.042 5.457-6.145H29.27c0 3.288-2.436 4.77-4.082 4.77v1.375Z" fill="url(#v)"/><path d="M25.188 40.979a.687.687 0 1 0 0 1.375v-1.375Zm5.457-4.77a.688.688 0 0 0-1.375 0h1.375Zm-5.457 6.145c2.349 0 5.457-2.042 5.457-6.145H29.27c0 3.288-2.436 4.77-4.082 4.77v1.375Z" fill="url(#w)"/><path d="M34.71 41.666c-1.997 0-4.769-1.762-4.769-5.457" stroke="url(#x)" stroke-linecap="round"/><path d="M34.71 41.666c-1.997 0-4.769-1.762-4.769-5.457" stroke="url(#y)" stroke-linecap="round"/><path d="M30.652 36.209a.687.687 0 0 0-.687-.688h-.016a.688.688 0 0 0-.687.688c0 .113.002.225.007.335-.16 3.053-2.484 4.435-4.074 4.435a.687.687 0 1 0 0 1.375c1.665 0 3.711-1.026 4.762-3.084 1.05 2.058 3.097 3.084 4.762 3.084a.688.688 0 0 0 0-1.375c-1.59 0-3.915-1.382-4.074-4.435.005-.11.007-.222.007-.335Z" fill="url(#z)"/><path d="M14.043 30.497 24.08 16.342c.807-1.138-.006-2.713-1.402-2.713H17.11a6.187 6.187 0 0 0-6.187 6.187v9.687c0 1.675 2.152 2.36 3.12.994Z" fill="url(#A)"/><path d="M14.043 30.497 24.08 16.342c.807-1.138-.006-2.713-1.402-2.713H17.11a6.187 6.187 0 0 0-6.187 6.187v9.687c0 1.675 2.152 2.36 3.12.994Z" fill="url(#B)"/><path d="M14.043 30.497 24.08 16.342c.807-1.138-.006-2.713-1.402-2.713H17.11a6.187 6.187 0 0 0-6.187 6.187v9.687c0 1.675 2.152 2.36 3.12.994Z" fill="url(#C)"/><path d="M14.043 30.497 24.08 16.342c.807-1.138-.006-2.713-1.402-2.713H17.11a6.187 6.187 0 0 0-6.187 6.187v9.687c0 1.675 2.152 2.36 3.12.994Z" fill="url(#D)"/><path d="M14.043 30.497 24.08 16.342c.807-1.138-.006-2.713-1.402-2.713H17.11a6.187 6.187 0 0 0-6.187 6.187v9.687c0 1.675 2.152 2.36 3.12.994Z" fill="url(#E)"/><path d="M45.828 30.497 35.791 16.342c-.807-1.138.007-2.713 1.402-2.713h5.569a6.188 6.188 0 0 1 6.187 6.187v9.687c0 1.675-2.152 2.36-3.12.994Z" fill="url(#F)"/><path d="M45.828 30.497 35.791 16.342c-.807-1.138.007-2.713 1.402-2.713h5.569a6.188 6.188 0 0 1 6.187 6.187v9.687c0 1.675-2.152 2.36-3.12.994Z" fill="url(#G)"/><path d="M45.828 30.497 35.791 16.342c-.807-1.138.007-2.713 1.402-2.713h5.569a6.188 6.188 0 0 1 6.187 6.187v9.687c0 1.675-2.152 2.36-3.12.994Z" fill="url(#H)"/><path d="M45.828 30.497 35.791 16.342c-.807-1.138.007-2.713 1.402-2.713h5.569a6.188 6.188 0 0 1 6.187 6.187v9.687c0 1.675-2.152 2.36-3.12.994Z" fill="url(#I)"/><g filter="url(#J)"><path d="M25.188 24.814c-.561 0-1.016.455-1.016 1.016v2.062a1.015 1.015 0 1 0 2.03 0V25.83c0-.561-.454-1.016-1.015-1.016Z" fill="#DC9868"/></g><path d="M25.827 24.513c-.56 0-1.015.455-1.015 1.016v2.063a1.015 1.015 0 1 0 2.03 0v-2.063c0-.561-.454-1.016-1.015-1.016Z" fill="url(#K)"/><path d="M25.827 24.513c-.56 0-1.015.455-1.015 1.016v2.063a1.015 1.015 0 1 0 2.03 0v-2.063c0-.561-.454-1.016-1.015-1.016Z" fill="url(#L)"/><g filter="url(#M)"><path d="M26.179 25.137v2.19" stroke="#725F62" stroke-width=".2" stroke-linecap="round"/></g><path d="M34.056 24.513c-.561 0-1.016.455-1.016 1.016v2.063a1.015 1.015 0 1 0 2.031 0v-2.063c0-.561-.454-1.016-1.015-1.016Z" fill="url(#N)"/><path d="M34.056 24.513c-.561 0-1.016.455-1.016 1.016v2.063a1.015 1.015 0 1 0 2.031 0v-2.063c0-.561-.454-1.016-1.015-1.016Z" fill="url(#O)"/><g filter="url(#P)"><path d="M34.407 25.137v2.19" stroke="#725F62" stroke-width=".2" stroke-linecap="round"/></g><path d="M31.333 31.373h-2.621c-.93 0-1.441 1.083-.848 1.8l.928 1.123a1.65 1.65 0 0 0 2.59-.059l.83-1.102a1.1 1.1 0 0 0-.879-1.762Z" fill="url(#Q)"/><path d="M31.333 31.373h-2.621c-.93 0-1.441 1.083-.848 1.8l.928 1.123a1.65 1.65 0 0 0 2.59-.059l.83-1.102a1.1 1.1 0 0 0-.879-1.762Z" fill="url(#R)"/><path d="M31.333 31.373h-2.621c-.93 0-1.441 1.083-.848 1.8l.928 1.123a1.65 1.65 0 0 0 2.59-.059l.83-1.102a1.1 1.1 0 0 0-.879-1.762Z" fill="url(#S)"/><g filter="url(#T)"><path d="M31.87 32.643c.121-.11.068-.368-.12-.577-.189-.21-.44-.29-.562-.18-.122.11-.068.368.12.577.188.21.44.29.562.18Z" fill="#786366"/></g><g filter="url(#U)"><path d="M47.703 18.02v11.344" stroke="url(#V)" stroke-width=".2"/></g><g filter="url(#W)"><path d="m23.512 15.528-4.92 7.09" stroke="url(#X)" stroke-width=".2"/></g><defs><linearGradient id="a" x1="29.957" y1="16.302" x2="29.957" y2="51.235" gradientUnits="userSpaceOnUse"><stop stop-color="#F7C5A1"/><stop offset="1" stop-color="#E28454"/></linearGradient><linearGradient id="b" x1="11.91" y1="45.125" x2="18.527" y2="45.125" gradientUnits="userSpaceOnUse"><stop stop-color="#BD8465"/><stop offset="1" stop-color="#BD8465" stop-opacity="0"/></linearGradient><linearGradient id="c" x1="51.699" y1="45.125" x2="41.215" y2="45.125" gradientUnits="userSpaceOnUse"><stop stop-color="#FFC390"/><stop offset="1" stop-color="#FFC390" stop-opacity="0"/></linearGradient><linearGradient id="d" x1="29.957" y1="37.27" x2="29.957" y2="51.278" gradientUnits="userSpaceOnUse"><stop stop-color="#89254F" stop-opacity="0"/><stop offset="1" stop-color="#98335E"/></linearGradient><linearGradient id="e" x1="29.957" y1="44.489" x2="29.957" y2="45.563" gradientUnits="userSpaceOnUse"><stop stop-color="#E273A2" stop-opacity="0"/><stop offset="1" stop-color="#E273A2"/></linearGradient><linearGradient id="j" x1="28.86" y1="13.133" x2="28.86" y2="16.821" gradientUnits="userSpaceOnUse"><stop stop-color="#FFE0C6"/><stop offset="1" stop-color="#FFC390" stop-opacity="0"/></linearGradient><linearGradient id="l" x1="45.641" y1="37.869" x2="46.191" y2="14.524" gradientUnits="userSpaceOnUse"><stop stop-color="#FFC390"/><stop offset="1" stop-color="#FFC390" stop-opacity="0"/></linearGradient><linearGradient id="r" x1="27.551" y1="37.184" x2="27.551" y2="47.067" gradientUnits="userSpaceOnUse"><stop stop-color="#B41D4E"/><stop offset="1" stop-color="#C9297C"/></linearGradient><linearGradient id="t" x1="35.849" y1="48.691" x2="29.442" y2="48.828" gradientUnits="userSpaceOnUse"><stop offset=".438" stop-color="#F26D9E"/><stop offset=".948" stop-color="#EF6A9A" stop-opacity="0"/></linearGradient><linearGradient id="w" x1="25.188" y1="41.352" x2="27.724" y2="40.777" gradientUnits="userSpaceOnUse"><stop stop-color="#4A3435"/><stop offset="1" stop-color="#473132" stop-opacity="0"/></linearGradient><linearGradient id="y" x1="30.215" y1="34.843" x2="30.819" y2="37.046" gradientUnits="userSpaceOnUse"><stop stop-color="#65484A"/><stop offset="1" stop-color="#65484A" stop-opacity="0"/></linearGradient><linearGradient id="A" x1="18.463" y1="13.629" x2="11.867" y2="29.45" gradientUnits="userSpaceOnUse"><stop stop-color="#9F6C5B"/><stop offset="1" stop-color="#683C44"/></linearGradient><linearGradient id="B" x1="8.988" y1="23.606" x2="14.059" y2="23.606" gradientUnits="userSpaceOnUse"><stop stop-color="#5F333B"/><stop offset="1" stop-color="#683C44" stop-opacity="0"/></linearGradient><linearGradient id="C" x1="18.957" y1="25.239" x2="17.453" y2="24.079" gradientUnits="userSpaceOnUse"><stop offset=".208" stop-color="#5F333B"/><stop offset="1" stop-color="#683C44" stop-opacity="0"/></linearGradient><linearGradient id="D" x1="13.156" y1="33.231" x2="14.961" y2="25.411" gradientUnits="userSpaceOnUse"><stop stop-color="#50212A"/><stop offset="1" stop-color="#683C44" stop-opacity="0"/></linearGradient><linearGradient id="F" x1="41.408" y1="13.629" x2="48.004" y2="29.45" gradientUnits="userSpaceOnUse"><stop stop-color="#9F6C5B"/><stop offset="1" stop-color="#683C44"/></linearGradient><linearGradient id="G" x1="39.238" y1="26.614" x2="43.707" y2="23.606" gradientUnits="userSpaceOnUse"><stop stop-color="#5F333B"/><stop offset="1" stop-color="#683C44" stop-opacity="0"/></linearGradient><linearGradient id="H" x1="46.715" y1="33.231" x2="44.91" y2="25.411" gradientUnits="userSpaceOnUse"><stop stop-color="#50212A"/><stop offset="1" stop-color="#683C44" stop-opacity="0"/></linearGradient><linearGradient id="K" x1="27.528" y1="26.56" x2="24.494" y2="26.56" gradientUnits="userSpaceOnUse"><stop offset=".006" stop-color="#5F5254"/><stop offset="1" stop-color="#2E2127"/></linearGradient><linearGradient id="L" x1="24.494" y1="28.751" x2="24.494" y2="27.6" gradientUnits="userSpaceOnUse"><stop offset=".006" stop-color="#34222C"/><stop offset="1" stop-color="#34222C" stop-opacity="0"/></linearGradient><linearGradient id="N" x1="35.756" y1="26.56" x2="32.722" y2="26.56" gradientUnits="userSpaceOnUse"><stop offset=".006" stop-color="#5F5254"/><stop offset="1" stop-color="#2E2127"/></linearGradient><linearGradient id="O" x1="32.722" y1="28.751" x2="32.722" y2="27.6" gradientUnits="userSpaceOnUse"><stop offset=".006" stop-color="#34222C"/><stop offset="1" stop-color="#34222C" stop-opacity="0"/></linearGradient><linearGradient id="Q" x1="31.934" y1="30.997" x2="27.895" y2="35.036" gradientUnits="userSpaceOnUse"><stop offset=".191" stop-color="#5F5254"/><stop offset="1" stop-color="#2E2127"/></linearGradient><linearGradient id="S" x1="30.516" y1="32.952" x2="30.516" y2="30.588" gradientUnits="userSpaceOnUse"><stop offset=".147" stop-color="#34222C" stop-opacity="0"/><stop offset=".873" stop-color="#34222C"/></linearGradient><linearGradient id="V" x1="nan" y1="nan" x2="nan" y2="nan" gradientUnits="userSpaceOnUse"><stop stop-color="#B3887F"/><stop offset="1" stop-color="#B3887F" stop-opacity="0"/></linearGradient><linearGradient id="X" x1="23.49" y1="16.881" x2="18.162" y2="24.788" gradientUnits="userSpaceOnUse"><stop stop-color="#D3B4AE"/><stop offset="1" stop-color="#D3B4AE" stop-opacity="0"/></linearGradient><radialGradient id="f" cx="0" cy="0" r="1" gradientUnits="userSpaceOnUse" gradientTransform="matrix(2.66405 10.74219 -9.60005 2.3808 10.793 24.723)"><stop stop-color="#BD8465"/><stop offset="1" stop-color="#BD8465" stop-opacity="0"/></radialGradient><radialGradient id="g" cx="0" cy="0" r="1" gradientUnits="userSpaceOnUse" gradientTransform="matrix(-14.8672 0 0 -11.3952 29.957 39.676)"><stop stop-color="#AD5C30"/><stop offset="1" stop-color="#AD5C30" stop-opacity="0"/></radialGradient><radialGradient id="h" cx="0" cy="0" r="1" gradientUnits="userSpaceOnUse" gradientTransform="matrix(.4297 10.91404 -9.54322 .37572 28.41 41.91)"><stop stop-color="#AD5C30"/><stop offset="1" stop-color="#AD5C30" stop-opacity="0"/></radialGradient><radialGradient id="i" cx="0" cy="0" r="1" gradientUnits="userSpaceOnUse" gradientTransform="rotate(70.748 2.097 25.145) scale(11.267 25.8727)"><stop stop-color="#FFD6B3"/><stop offset="1" stop-color="#FFC390" stop-opacity="0"/></radialGradient><radialGradient id="n" cx="0" cy="0" r="1" gradientUnits="userSpaceOnUse" gradientTransform="matrix(0 15.9844 -33.0429 0 30 33.489)"><stop stop-color="#FFE3B6"/><stop offset=".318" stop-color="#F5C19B"/><stop offset=".896" stop-color="#BE625B"/></radialGradient><radialGradient id="o" cx="0" cy="0" r="1" gradientUnits="userSpaceOnUse" gradientTransform="rotate(140.599 10.348 23.711) scale(18.6839 19.1183)"><stop offset=".595" stop-color="#BE625B" stop-opacity="0"/><stop offset="1" stop-color="#BE625B"/></radialGradient><radialGradient id="p" cx="0" cy="0" r="1" gradientUnits="userSpaceOnUse" gradientTransform="rotate(125.776 11.854 25.847) scale(7.20287 9.39808)"><stop stop-color="#FFE9BE"/><stop offset="1" stop-color="#FFE9BE" stop-opacity="0"/></radialGradient><radialGradient id="v" cx="0" cy="0" r="1" gradientUnits="userSpaceOnUse" gradientTransform="rotate(48.013 -30.324 50.6) scale(2.31234 5.25313)"><stop stop-color="#261317"/><stop offset=".653" stop-color="#65484A"/><stop offset="1" stop-color="#3C1534"/></radialGradient><radialGradient id="x" cx="0" cy="0" r="1" gradientUnits="userSpaceOnUse" gradientTransform="rotate(132.556 7.68 26.678) scale(2.49371 5.97788)"><stop stop-color="#261317"/><stop offset=".508" stop-color="#65484A"/><stop offset=".902" stop-color="#3C1534"/></radialGradient><radialGradient id="z" cx="0" cy="0" r="1" gradientUnits="userSpaceOnUse" gradientTransform="matrix(-3.60938 3.73827 -1.87884 -1.81406 28.281 37.12)"><stop stop-color="#392930"/><stop offset="1" stop-color="#392930" stop-opacity="0"/></radialGradient><radialGradient id="E" cx="0" cy="0" r="1" gradientUnits="userSpaceOnUse" gradientTransform="rotate(125.218 9.293 10.74) scale(12.5177 13.2632)"><stop stop-color="#BF867C"/><stop offset="1" stop-color="#BF867C" stop-opacity="0"/></radialGradient><radialGradient id="I" cx="0" cy="0" r="1" gradientUnits="userSpaceOnUse" gradientTransform="rotate(-173.904 27.27 9.91) scale(8.9019 9.43207)"><stop stop-color="#BF867C"/><stop offset="1" stop-color="#BF867C" stop-opacity="0"/></radialGradient><radialGradient id="R" cx="0" cy="0" r="1" gradientUnits="userSpaceOnUse" gradientTransform="rotate(135.864 8.7 22.298) scale(3.0235 5.56502)"><stop offset=".463" stop-color="#34222C" stop-opacity="0"/><stop offset=".956" stop-color="#34222C"/></radialGradient><filter id="k" x="39.445" y="19.688" width="8.051" height="23.09" filterUnits="userSpaceOnUse" color-interpolation-filters="sRGB"><feFlood flood-opacity="0" result="BackgroundImageFix"/><feBlend in="SourceGraphic" in2="BackgroundImageFix" result="shape"/><feGaussianBlur stdDeviation="1.25" result="effect1_foregroundBlur_90_332"/></filter><filter id="m" x="32.6" y="13.867" width="14.801" height="25.661" filterUnits="userSpaceOnUse" color-interpolation-filters="sRGB"><feFlood flood-opacity="0" result="BackgroundImageFix"/><feBlend in="SourceGraphic" in2="BackgroundImageFix" result="shape"/><feGaussianBlur stdDeviation="1" result="effect1_foregroundBlur_90_332"/></filter><filter id="q" x="25.821" y="38.309" width="8.272" height="10.941" filterUnits="userSpaceOnUse" color-interpolation-filters="sRGB"><feFlood flood-opacity="0" result="BackgroundImageFix"/><feBlend in="SourceGraphic" in2="BackgroundImageFix" result="shape"/><feColorMatrix in="SourceAlpha" values="0 0 0 0 0 0 0 0 0 0 0 0 0 0 0 0 0 0 127 0" result="hardAlpha"/><feOffset dy="-.5"/><feGaussianBlur stdDeviation=".25"/><feComposite in2="hardAlpha" operator="arithmetic" k2="-1" k3="1"/><feColorMatrix values="0 0 0 0 0.841667 0 0 0 0 0.164826 0 0 0 0 0.552771 0 0 0 1 0"/><feBlend in2="shape" result="effect1_innerShadow_90_332"/></filter><filter id="s" x="29.041" y="38.408" width="5.226" height="11.005" filterUnits="userSpaceOnUse" color-interpolation-filters="sRGB"><feFlood flood-opacity="0" result="BackgroundImageFix"/><feBlend in="SourceGraphic" in2="BackgroundImageFix" result="shape"/><feGaussianBlur stdDeviation=".2" result="effect1_foregroundBlur_90_332"/></filter><filter id="u" x="25.875" y="38.309" width="8.165" height="4.72" filterUnits="userSpaceOnUse" color-interpolation-filters="sRGB"><feFlood flood-opacity="0" result="BackgroundImageFix"/><feBlend in="SourceGraphic" in2="BackgroundImageFix" result="shape"/><feGaussianBlur stdDeviation=".25" result="effect1_foregroundBlur_90_332"/></filter><filter id="J" x="23.372" y="24.014" width="3.631" height="5.694" filterUnits="userSpaceOnUse" color-interpolation-filters="sRGB"><feFlood flood-opacity="0" result="BackgroundImageFix"/><feBlend in="SourceGraphic" in2="BackgroundImageFix" result="shape"/><feGaussianBlur stdDeviation=".4" result="effect1_foregroundBlur_90_332"/></filter><filter id="M" x="25.779" y="24.737" width=".8" height="2.991" filterUnits="userSpaceOnUse" color-interpolation-filters="sRGB"><feFlood flood-opacity="0" result="BackgroundImageFix"/><feBlend in="SourceGraphic" in2="BackgroundImageFix" result="shape"/><feGaussianBlur stdDeviation=".15" result="effect1_foregroundBlur_90_332"/></filter><filter id="P" x="34.008" y="24.737" width=".8" height="2.991" filterUnits="userSpaceOnUse" color-interpolation-filters="sRGB"><feFlood flood-opacity="0" result="BackgroundImageFix"/><feBlend in="SourceGraphic" in2="BackgroundImageFix" result="shape"/><feGaussianBlur stdDeviation=".15" result="effect1_foregroundBlur_90_332"/></filter><filter id="T" x="30.623" y="31.337" width="1.812" height="1.855" filterUnits="userSpaceOnUse" color-interpolation-filters="sRGB"><feFlood flood-opacity="0" result="BackgroundImageFix"/><feBlend in="SourceGraphic" in2="BackgroundImageFix" result="shape"/><feGaussianBlur stdDeviation=".25" result="effect1_foregroundBlur_90_332"/></filter><filter id="U" x="46.853" y="17.27" width="1.7" height="12.844" filterUnits="userSpaceOnUse" color-interpolation-filters="sRGB"><feFlood flood-opacity="0" result="BackgroundImageFix"/><feBlend in="SourceGraphic" in2="BackgroundImageFix" result="shape"/><feGaussianBlur stdDeviation=".375" result="effect1_foregroundBlur_90_332"/></filter><filter id="W" x="18.01" y="14.971" width="6.084" height="8.204" filterUnits="userSpaceOnUse" color-interpolation-filters="sRGB"><feFlood flood-opacity="0" result="BackgroundImageFix"/><feBlend in="SourceGraphic" in2="BackgroundImageFix" result="shape"/><feGaussianBlur stdDeviation=".25" result="effect1_foregroundBlur_90_332"/></filter></defs></svg>